<svg xmlns="http://www.w3.org/2000/svg" xmlns:svg="http://www.w3.org/2000/svg" xmlns:xlink="http://www.w3.org/1999/xlink" id="svg2898" width="128" height="128" version="1.0"><defs id="defs2900"><linearGradient id="XMLID_22_" x1="9.952" x2="91.043" y1="48.573" y2="48.573" gradientUnits="userSpaceOnUse"><stop id="stop128" offset="0" stop-color="#888"/><stop id="stop130" offset=".497" stop-color="#000"/></linearGradient><linearGradient id="XMLID_21_" x1="52.15" x2="52.15" y1="80.711" y2="-2.289" gradientUnits="userSpaceOnUse"><stop id="stop119" offset="0" stop-color="#FFF"/><stop id="stop121" offset="1" stop-color="#888"/></linearGradient><linearGradient id="XMLID_20_" x1="11.15" x2="93.15" y1="38.592" y2="38.592" gradientUnits="userSpaceOnUse"><stop id="stop112" offset=".5" stop-color="#F7F7F5"/><stop id="stop114" offset="1" stop-color="#DDD"/></linearGradient><linearGradient id="XMLID_19_" x1="52.149" x2="52.149" y1="1.832" y2="73.31" gradientUnits="userSpaceOnUse"><stop id="stop105" offset=".5" stop-color="#F7F7F5"/><stop id="stop107" offset="1" stop-color="#DDD"/></linearGradient><linearGradient id="XMLID_18_" x1="99.212" x2="99.212" y1="75.019" y2="97.961" gradientUnits="userSpaceOnUse"><stop id="stop96" offset="0" stop-color="#FFF"/><stop id="stop98" offset="1" stop-color="#fff" stop-opacity="0"/></linearGradient><linearGradient id="XMLID_16_" x1="3.461" x2="100.838" y1="98.078" y2="98.078" gradientUnits="userSpaceOnUse"><stop id="stop80" offset="0" stop-color="#fff" stop-opacity="0"/><stop id="stop82" offset=".568" stop-color="#FFF"/><stop id="stop84" offset="1" stop-color="#fff" stop-opacity="0"/></linearGradient><linearGradient id="XMLID_15_" x1="96.033" x2="96.033" y1="2.439" y2="102.538" gradientUnits="userSpaceOnUse"><stop id="stop55" offset="0" stop-color="#80848A"/><stop id="stop57" offset=".305" stop-color="#83878D"/><stop id="stop59" offset=".495" stop-color="#8B8F95"/><stop id="stop61" offset=".654" stop-color="#999EA4"/><stop id="stop63" offset=".794" stop-color="#ADB2B8"/><stop id="stop65" offset=".811" stop-color="#B0B5BB"/><stop id="stop67" offset=".881" stop-color="#AEB3B8"/><stop id="stop69" offset=".925" stop-color="#A7ABB0"/><stop id="stop71" offset=".961" stop-color="#9C9EA1"/><stop id="stop73" offset=".994" stop-color="#8C8C8D"/><stop id="stop75" offset="1" stop-color="#888"/></linearGradient><linearGradient id="XMLID_14_" x1="8.268" x2="8.268" y1="2.462" y2="103.575" gradientUnits="userSpaceOnUse"><stop id="stop38" offset=".5" stop-color="#aeb4bb" stop-opacity="1"/><stop id="stop40" offset=".811" stop-color="#B0B5BB"/><stop id="stop42" offset=".881" stop-color="#AEB3B8"/><stop id="stop44" offset=".925" stop-color="#A7ABB0"/><stop id="stop46" offset=".961" stop-color="#9C9EA1"/><stop id="stop48" offset=".994" stop-color="#8C8C8D"/><stop id="stop50" offset="1" stop-color="#888" stop-opacity="1"/></linearGradient><linearGradient id="XMLID_13_" x1=".15" x2="104.15" y1="50.284" y2="50.284" gradientUnits="userSpaceOnUse"><stop id="stop19" offset="0" stop-color="#DDD"/><stop id="stop21" offset=".676" stop-color="#a5acb3" stop-opacity="1"/><stop id="stop23" offset=".811" stop-color="#B0B5BB"/><stop id="stop25" offset=".881" stop-color="#AEB3B8"/><stop id="stop27" offset=".925" stop-color="#A7ABB0"/><stop id="stop29" offset=".972" stop-color="#b6b8ba" stop-opacity="1"/><stop id="stop31" offset=".994" stop-color="#8C8C8D"/><stop id="stop33" offset="1" stop-color="#888"/></linearGradient><filter id="filter2894"><feGaussianBlur id="feGaussianBlur2896" stdDeviation="1.534"/></filter><radialGradient id="XMLID_12_" cx="53.331" cy="92.662" r="79.182" gradientTransform="matrix(1,0,0,1.0994,0,-11.024)" gradientUnits="userSpaceOnUse"><stop id="stop10" offset=".5" stop-color="#F7F7F5"/><stop id="stop12" offset="1" stop-color="#DDD"/></radialGradient><clipPath id="clipPath3246" clipPathUnits="userSpaceOnUse"><path id="path3248" fill="#f0f" fill-opacity="1" d="M 0.15,109.289 C 0.15,137.289 0.15,86.289 0.15,114.289 C 0.15,116.489 1.761,118.432 3.732,118.593 C 35.968,121.227 68.333,121.227 100.569,118.593 C 102.539,118.432 104.15,116.489 104.15,114.289 C 104.15,86.289 104.15,137.289 104.15,109.289 C 104.15,107.589 0.15,107.589 0.15,109.289 z"/></clipPath><filter id="filter3643" width="1.05" height="1.986" x="-.025" y="-.493"><feGaussianBlur id="feGaussianBlur3645" stdDeviation="1.024"/></filter><linearGradient id="linearGradient3677" x1=".15" x2="104.15" y1="50.284" y2="50.284" gradientTransform="translate(11.8505,11.715786)" gradientUnits="userSpaceOnUse" xlink:href="#XMLID_13_"/><radialGradient id="radialGradient3685" cx="53.331" cy="92.662" r="79.182" gradientTransform="matrix(1,0,0,1.0994,0,-11.024)" gradientUnits="userSpaceOnUse" xlink:href="#XMLID_12_"/><linearGradient id="linearGradient3687" x1="52.149" x2="52.149" y1="1.832" y2="73.31" gradientUnits="userSpaceOnUse" xlink:href="#XMLID_19_"/><linearGradient id="linearGradient3689" x1="9.952" x2="91.043" y1="48.573" y2="48.573" gradientUnits="userSpaceOnUse" xlink:href="#XMLID_22_"/><linearGradient id="linearGradient3697" x1="52.15" x2="52.15" y1="75.185" y2="-2.289" gradientTransform="translate(11.8505,11.715786)" gradientUnits="userSpaceOnUse" xlink:href="#XMLID_21_"/><linearGradient id="linearGradient3700" x1="11.15" x2="93.15" y1="38.592" y2="38.592" gradientTransform="translate(11.8505,11.715786)" gradientUnits="userSpaceOnUse" xlink:href="#XMLID_20_"/><linearGradient id="linearGradient3708" x1="5.633" x2="5.633" y1="75.019" y2="97.961" gradientTransform="translate(11.8505,11.715786)" gradientUnits="userSpaceOnUse" xlink:href="#XMLID_18_"/><linearGradient id="linearGradient3711" x1="99.212" x2="99.212" y1="75.019" y2="97.961" gradientTransform="translate(11.8505,11.715786)" gradientUnits="userSpaceOnUse" xlink:href="#XMLID_18_"/><linearGradient id="linearGradient3715" x1="96.033" x2="96.033" y1="2.439" y2="102.538" gradientTransform="translate(11.8505,11.715786)" gradientUnits="userSpaceOnUse" xlink:href="#XMLID_15_"/><linearGradient id="linearGradient3718" x1="8.268" x2="8.268" y1="2.462" y2="103.575" gradientTransform="translate(11.8505,11.715786)" gradientUnits="userSpaceOnUse" xlink:href="#XMLID_14_"/><linearGradient id="linearGradient3364" x1="9.952" x2="91.043" y1="48.573" y2="48.573" gradientTransform="matrix(1.0243063,0,0,1.0243063,0.26460779,-1.5833485)" gradientUnits="userSpaceOnUse" xlink:href="#XMLID_22_"/></defs><metadata id="metadata2903"/><g id="layer1"><g id="g7" transform="translate(11.8505,11.715786)"><radialGradient id="radialGradient2988" cx="53.332" cy="92.662" r="79.182" gradientTransform="matrix(1,0,0,1.0994,0,-11.024)" gradientUnits="userSpaceOnUse"><stop id="stop2990" offset=".5" stop-color="#F7F7F5"/><stop id="stop2992" offset="1" stop-color="#DDD"/></radialGradient><path id="path14" fill="url(#radialGradient3685)" d="M 104.15,93.125 C 104.15,95.982 102.026,98.508 99.428,98.712 C 67.949,101.188 36.35,101.188 4.87,98.712 C 2.273,98.508 0.149,95.983 0.149,93.125 C 0.149,65.514 0.149,37.903 0.149,10.292 C 0.149,7.433 2.273,5.28 4.87,5.484 C 36.349,7.96 67.949,7.96 99.428,5.484 C 102.026,5.28 104.15,7.433 104.15,10.292 C 104.15,37.903 104.15,65.514 104.15,93.125 z"/></g><path id="path16" d="M 14.3115,21.476786 C 12.9655,21.940786 11.9995,23.305786 11.9995,25.004786 C 11.9995,53.004786 11.9995,82.00479 11.9995,110.00479 C 11.9995,112.20479 13.6105,114.14779 15.5815,114.30879 C 47.8175,116.94279 80.1825,116.94279 112.4185,114.30879 C 114.3885,114.14779 115.9995,112.20479 115.9995,110.00479 C 115.9995,82.00479 115.9995,53.004786 115.9995,25.004786 C 115.9995,23.304786 115.0325,21.939786 113.6875,21.476786 L 105.6035,15.950786 C 105.1135,15.770786 104.5735,15.684786 104.0045,15.725786 C 77.3685,17.630786 50.6305,17.630786 23.9945,15.725786 C 23.4255,15.684786 22.8865,15.770786 22.3955,15.950786 L 14.3115,21.476786 z" filter="url(#filter2894)" opacity=".6"/><path id="path35" fill="url(#linearGradient3677)" d="M 14.3115,17.476786 C 12.9665,17.940786 12.0005,19.304786 12.0005,21.004786 C 12.0005,49.004786 12.0005,78.00479 12.0005,106.00479 C 12.0005,108.20479 13.6115,110.14779 15.5825,110.30879 C 47.8185,112.94279 80.1835,112.94279 112.4195,110.30879 C 114.3895,110.14779 116.0005,108.20479 116.0005,106.00479 C 116.0005,78.00479 116.0005,49.004786 116.0005,21.004786 C 116.0005,19.304786 115.0335,17.939786 113.6885,17.476786 L 105.6045,11.950786 C 105.1145,11.770786 104.5745,11.684786 104.0055,11.725786 C 77.3695,13.630786 50.6315,13.630786 23.9955,11.725786 C 23.4265,11.684786 22.8875,11.770786 22.3965,11.950786 L 14.3115,17.476786 z"/><path id="path52" fill="url(#linearGradient3718)" d="M 17.5765,110.28579 C 15.6865,110.12279 14.1425,108.15879 14.1425,105.93379 C 14.1425,77.61879 14.1425,48.290786 14.1425,19.975786 L 22.6215,11.892786 C 22.5475,11.914786 22.4685,11.923786 22.3965,11.949786 L 14.3115,17.476786 C 12.9665,17.940786 12.0005,19.304786 12.0005,21.004786 C 12.0005,49.004786 12.0005,78.00479 12.0005,106.00479 C 12.0005,108.20479 13.6115,110.14779 15.5825,110.30879 C 31.4125,111.60279 32.7435,111.59379 17.5765,110.28579 z"/><path id="path77" fill="url(#linearGradient3715)" d="M 113.6875,17.476786 L 105.6035,11.950786 C 105.5325,11.924786 105.4525,11.915786 105.3785,11.893786 C 105.3785,11.893786 113.8585,18.257786 113.8585,19.976786 C 113.8585,48.291786 113.8585,77.61979 113.8585,105.93479 C 113.8585,108.15979 112.3135,110.12279 110.4245,110.28679 C 95.2595,111.59379 96.5895,111.60179 112.4185,110.30879 C 114.3885,110.14779 115.9995,108.20479 115.9995,106.00479 C 115.9995,78.00479 115.9995,49.004786 115.9995,21.004786 C 116.0005,19.304786 115.0335,17.939786 113.6875,17.476786 z"/><path id="path86" fill="#fff" fill-opacity="1" d="M 99.397,116.593 C 67.941,119.227 36.359,119.227 4.903,116.593 C 2.98,116.432 2.98,118.432 4.903,118.593 C 36.359,121.227 67.941,121.227 99.397,118.593 C 101.319,118.432 101.319,116.432 99.397,116.593 z" clip-path="url(#clipPath3246)" filter="url(#filter3643)" transform="translate(11.8505,-8.284214)"/><path id="path100" fill="url(#linearGradient3711)" d="M 115.7525,107.45679 L 109.3185,82.60879 C 109.0955,81.74679 106.2055,82.62079 106.4295,83.48179 L 113.1855,109.57579 C 113.2315,109.75379 113.3075,109.91079 113.3995,110.05479 C 114.4785,109.61679 115.3505,108.65179 115.7525,107.45679 z"/><path id="path2882" fill="url(#linearGradient3708)" fill-opacity="1" d="M 19.3465,82.60979 L 12.6745,108.37979 C 13.2435,109.31679 14.1285,109.99779 15.1425,110.22379 C 15.2935,110.04279 15.4135,109.82779 15.4785,109.57779 L 22.2345,83.48379 C 22.4585,82.62079 19.5705,81.74779 19.3465,82.60979 z"/><g id="g102" transform="translate(11.8505,11.715786)"><linearGradient id="linearGradient3003" x1="52.149" x2="52.149" y1="1.832" y2="73.31" gradientUnits="userSpaceOnUse"><stop id="stop3005" offset=".5" stop-color="#F7F7F5"/><stop id="stop3007" offset="1" stop-color="#DDD"/></linearGradient><path id="path109" fill="url(#linearGradient3687)" d="M 96.15,69.46 C 96.15,71.66 94.353,73.604 92.155,73.76 C 65.519,75.665 38.781,75.665 12.145,73.76 C 9.947,73.604 8.15,71.66 8.15,69.46 C 8.15,48.21 8.15,26.96 8.15,5.71 C 8.15,3.51 9.947,1.853 12.145,2.01 C 38.781,3.915 65.52,3.915 92.155,2.01 C 94.353,1.853 96.15,3.51 96.15,5.71 C 96.15,26.96 96.15,48.21 96.15,69.46 z"/></g><path id="path116" fill="url(#linearGradient3700)" d="M 23.2085,16.895786 C 23.0705,17.024786 23.0005,17.202786 23.0005,17.425786 L 23.0005,81.17579 C 23.0005,81.80379 23.5875,82.43979 24.2085,82.48379 C 50.6135,84.37279 77.3885,84.37279 103.7915,82.48379 C 104.4135,82.43979 105.0005,81.80379 105.0005,81.17579 L 105.0005,17.425786 C 105.0005,17.202786 104.9305,17.024786 104.7915,16.895786 C 104.6925,16.803786 104.5125,16.697786 104.2185,16.717786 L 104.2195,16.717786 C 77.5315,18.626786 50.4695,18.626786 23.7815,16.717786 C 23.4885,16.696786 23.3085,16.802786 23.2085,16.895786 z"/><path id="path123" fill="url(#linearGradient3697)" d="M 103.9335,11.728786 C 77.4355,13.624786 50.5635,13.624786 24.0655,11.728786 C 22.7165,11.632786 21.4445,12.072786 20.4825,12.968786 C 19.5265,13.859786 19.0005,15.087786 19.0005,16.426786 L 19.0005,80.17679 C 19.0005,82.90479 21.2095,85.28079 23.9245,85.47379 C 50.5165,87.37579 77.4845,87.37579 104.0765,85.47379 C 106.7915,85.28179 109.0005,82.90479 109.0005,80.17679 L 109.0005,16.426786 C 109.0005,15.087786 108.4745,13.859786 107.5185,12.968786 C 106.5565,12.072786 105.2825,11.632786 103.9335,11.728786 z M 104.0765,13.723786 C 104.8655,13.667786 105.6035,13.918786 106.1545,14.432786 C 106.6995,14.940786 107.0005,15.648786 107.0005,16.426786 L 107.0005,80.17679 C 107.0005,81.84879 105.5965,83.36179 103.9345,83.47979 C 77.4365,85.37479 50.5655,85.37579 24.0665,83.47979 C 22.4045,83.36179 21.0005,81.84879 21.0005,80.17679 L 21.0005,16.426786 C 21.0005,15.648786 21.3005,14.940786 21.8465,14.432786 C 22.3975,13.918786 23.1355,13.667786 23.9245,13.723786 C 50.5165,15.625786 77.4835,15.626786 104.0765,13.723786 z"/><g id="g125" transform="matrix(1.7458808,0,0,1.7458808,5.5420386,-33.864184)"><linearGradient id="linearGradient3013" x1="9.952" x2="91.043" y1="48.573" y2="48.573" gradientUnits="userSpaceOnUse"><stop id="stop3015" offset="0" stop-color="#888"/><stop id="stop3017" offset=".497" stop-color="#000"/></linearGradient><path id="path3359" fill="url(#linearGradient3364)" d="m 26.052318,33.201899 17.165133,0 0,3.401017 -13.123924,0 0,8.802633 11.843541,0 0,3.401016 -11.843541,0 0,14.264265 -4.041209,0 0,-29.868931"/></g></g></svg>